<?xml version="1.0" encoding="UTF-8"?>
<!DOCTYPE svg PUBLIC "-//W3C//DTD SVG 1.1//EN" "http://www.w3.org/Graphics/SVG/1.1/DTD/svg11.dtd">
<!-- Creator: CorelDRAW X8 -->
<svg xmlns="http://www.w3.org/2000/svg" xml:space="preserve" width="100mm" height="100mm" version="1.1" style="shape-rendering:geometricPrecision; text-rendering:geometricPrecision; image-rendering:optimizeQuality; fill-rule:evenodd; clip-rule:evenodd"
viewBox="0 0 10000 10000"
 xmlns:xlink="http://www.w3.org/1999/xlink">
 <defs>
  <style type="text/css">
   <![CDATA[
    .fil0 {fill:#333333}
    .fil1 {fill:#333333;fill-rule:nonzero}
   ]]>
  </style>
 </defs>
 <g id="Warstwa_x0020_1">
  <metadata id="CorelCorpID_0Corel-Layer"/>
  <g id="_2363517240768">
   <g>
    <path class="fil0" d="M1078 2599l2488 0 0 945 -2488 0 0 -945zm2366 121l-2244 0 0 702 2244 0 0 -702z"/>
   </g>
   <g>
    <path class="fil1" d="M3576 4349c34,0 61,27 61,61 0,34 -27,61 -61,61l0 -122zm-1254 0l1254 0 0 122 -1254 0 -61 -61 61 -61zm0 122c-33,0 -61,-27 -61,-61 0,-34 28,-61 61,-61l0 122zm61 -927l0 866 -122 0 0 -866 122 0zm-122 0c0,-34 28,-61 61,-61 34,0 61,27 61,61l-122 0z"/>
   </g>
   <g>
    <path class="fil0" d="M3576 3937l2489 0 0 946 -2489 0 0 -946zm2367 122l-2245 0 0 702 2245 0 0 -702z"/>
   </g>
   <g>
    <path class="fil0" d="M3417 6456l2488 0 0 945 -2488 0 0 -945zm2366 122l-2244 0 0 702 2244 0 0 -702z"/>
   </g>
   <g>
    <path class="fil1" d="M3417 6867c34,0 61,28 61,62 0,34 -27,62 -61,62l0 -124zm-1095 0l1095 0 0 124 -1095 0 -61 -62 61 -62zm0 124c-34,0 -61,-28 -61,-62 0,-34 27,-62 61,-62l0 124zm61 -3447l0 3385 -122 0 0 -3385 122 0zm-122 0c0,-34 27,-62 61,-62 34,0 61,28 61,62l-122 0z"/>
   </g>
   <g>
    <path class="fil1" d="M6065 4471c-34,0 -61,-27 -61,-61 0,-34 27,-61 61,-61l0 122zm838 0l-838 0 0 -122 838 0 0 122zm0 -122c33,0 61,27 61,61 0,34 -28,61 -61,61l0 -122z"/>
   </g>
   <g>
    <path class="fil1" d="M5905 6990c-33,0 -61,-28 -61,-61 0,-34 28,-61 61,-61l0 122zm847 0l-847 0 0 -122 847 0 0 122zm0 -122c33,0 61,27 61,61 0,33 -28,61 -61,61l0 -122z"/>
   </g>
   <g>
    <path class="fil1" d="M7461 4097c-34,0 -61,-27 -61,-61 0,-33 27,-60 61,-60l0 121zm1461 0l-1461 0 0 -121 1461 0 0 121zm0 -121c34,0 61,27 61,60 0,34 -27,61 -61,61l0 -121z"/>
   </g>
   <g>
    <path class="fil1" d="M7461 4380c-34,0 -61,-27 -61,-60 0,-34 27,-61 61,-61l0 121zm1043 0l-1043 0 0 -121 1043 0 0 121zm0 -121c34,0 61,27 61,61 0,33 -27,60 -61,60l0 -121z"/>
   </g>
   <g>
    <path class="fil1" d="M7461 4663c-34,0 -61,-27 -61,-60 0,-34 27,-61 61,-61l0 121zm1280 0l-1280 0 0 -121 1280 0 0 121zm0 -121c33,0 60,27 60,61 0,33 -27,60 -60,60l0 -121z"/>
   </g>
   <g>
    <path class="fil1" d="M7461 4924c-34,0 -62,-28 -62,-61 0,-34 28,-61 62,-61l0 122zm877 0l-877 0 0 -122 877 0 0 122zm0 -122c34,0 61,27 61,61 0,33 -27,61 -61,61l0 -122z"/>
   </g>
   <g>
    <path class="fil1" d="M7461 5184c-34,0 -61,-27 -61,-61 0,-34 27,-61 61,-61l0 122zm1179 0l-1179 0 0 -122 1179 0 0 122zm0 -122c34,0 61,27 61,61 0,34 -27,61 -61,61l0 -122z"/>
   </g>
  </g>
 </g>
</svg>
