<?xml version="1.0" encoding="UTF-8"?>
<!DOCTYPE svg PUBLIC "-//W3C//DTD SVG 1.1//EN" "http://www.w3.org/Graphics/SVG/1.1/DTD/svg11.dtd">
<!-- Creator: CorelDRAW X8 -->
<svg xmlns="http://www.w3.org/2000/svg" xml:space="preserve" width="100mm" height="100mm" version="1.1" style="shape-rendering:geometricPrecision; text-rendering:geometricPrecision; image-rendering:optimizeQuality; fill-rule:evenodd; clip-rule:evenodd"
viewBox="0 0 10000 10000"
 xmlns:xlink="http://www.w3.org/1999/xlink">
 <defs>
  <style type="text/css">
   <![CDATA[
    .str3 {stroke:#333333;stroke-width:160.68;stroke-linecap:round}
    .str9 {stroke:#333333;stroke-width:160.68;stroke-linecap:round}
    .str8 {stroke:#333333;stroke-width:160.68;stroke-linecap:round}
    .str5 {stroke:#333333;stroke-width:160.68;stroke-linecap:round}
    .str10 {stroke:#333333;stroke-width:160.68;stroke-linecap:round}
    .str0 {stroke:#333333;stroke-width:160.68;stroke-linecap:round}
    .str4 {stroke:#333333;stroke-width:160.68;stroke-linecap:round}
    .str6 {stroke:#333333;stroke-width:160.68;stroke-linecap:round}
    .str2 {stroke:#333333;stroke-width:160.68;stroke-linecap:round}
    .str7 {stroke:#333333;stroke-width:160.68;stroke-linecap:round}
    .str1 {stroke:#333333;stroke-width:160.68;stroke-linecap:round}
    .fil0 {fill:none}
   ]]>
  </style>
 </defs>
 <g id="Warstwa_x0020_1">
  <metadata id="CorelCorpID_0Corel-Layer"/>
  <g id="_2363560547024">
   <path class="fil0 str0" d="M4055 6033c37,0 73,-3 108,-7 22,356 318,638 679,638 279,0 519,-168 624,-408 82,35 172,54 267,54 285,0 528,-174 630,-422 17,1 34,2 51,2 415,0 752,-337 752,-752 0,-416 -337,-752 -752,-752 -59,0 -116,7 -171,19 -97,-182 -289,-306 -510,-306 -119,0 -230,36 -322,99 -131,-146 -321,-238 -533,-238 -298,0 -553,183 -661,442 -53,-11 -107,-16 -162,-16 -455,0 -824,368 -824,823 0,455 369,824 824,824z"/>
   <path class="fil0 str1" d="M4612 4012c-50,-132 -100,-263 -299,-430 -200,-167 -549,-369 -868,-480 -319,-112 -609,-132 -898,-153"/>
   <path class="fil0 str1" d="M5671 4103c15,-123 30,-244 108,-373 77,-129 217,-265 443,-380 225,-115 535,-209 782,-247 246,-38 428,-20 610,-2"/>
   <path class="fil0 str1" d="M6418 3263c25,-105 51,-210 -14,-344 -64,-134 -220,-299 -384,-384 -164,-85 -337,-91 -510,-97"/>
   <path class="fil0 str1" d="M6986 4650c114,-110 228,-221 352,-226 124,-4 258,97 392,199"/>
   <path class="fil0 str1" d="M6846 5753c23,193 46,387 88,556 41,170 101,316 161,462"/>
   <path class="fil0 str1" d="M3926 6023c-115,163 -231,326 -403,433 -172,107 -399,157 -571,183 -173,25 -289,25 -405,25"/>
   <path class="fil0 str1" d="M3318 6552c-27,103 -55,206 -11,337 44,130 158,288 272,446"/>
   <path class="fil0 str1" d="M5126 6603c128,33 256,66 320,131 64,65 64,161 64,257"/>
   <path class="fil0 str1" d="M3278 4935c-244,27 -488,55 -632,12 -144,-42 -189,-154 -234,-266"/>
   <circle class="fil0 str2" cx="2069" cy="2918" r="456"/>
   <circle class="fil0 str3" cx="5116" cy="2208" r="456"/>
   <circle class="fil0 str4" cx="8044" cy="2948" r="456"/>
   <circle class="fil0 str5" cx="7941" cy="5028" r="456"/>
   <circle class="fil0 str6" cx="7253" cy="7200" r="456"/>
   <circle class="fil0 str7" cx="5619" cy="7447" r="456"/>
   <circle class="fil0 str8" cx="3687" cy="7792" r="456"/>
   <circle class="fil0 str9" cx="2090" cy="6743" r="456"/>
   <circle class="fil0 str10" cx="1956" cy="4650" r="456"/>
  </g>
 </g>
</svg>
