<?xml version="1.0" encoding="UTF-8"?>
<!DOCTYPE svg PUBLIC "-//W3C//DTD SVG 1.1//EN" "http://www.w3.org/Graphics/SVG/1.1/DTD/svg11.dtd">
<!-- Creator: CorelDRAW X8 -->
<svg xmlns="http://www.w3.org/2000/svg" xml:space="preserve" width="100mm" height="100mm" version="1.1" style="shape-rendering:geometricPrecision; text-rendering:geometricPrecision; image-rendering:optimizeQuality; fill-rule:evenodd; clip-rule:evenodd"
viewBox="0 0 10000 10000"
 xmlns:xlink="http://www.w3.org/1999/xlink">
 <defs>
  <style type="text/css">
   <![CDATA[
    .str0 {stroke:#333333;stroke-width:148.41;stroke-linecap:round}
    .fil1 {fill:none}
    .fil0 {fill:#333333;fill-rule:nonzero}
   ]]>
  </style>
 </defs>
 <g id="Warstwa_x0020_1">
  <metadata id="CorelCorpID_0Corel-Layer"/>
  <g id="_2363560557840">
   <g>
    <path class="fil0" d="M2038 4385c-40,0 -73,-34 -73,-75 0,-41 33,-74 73,-74l0 149zm5919 0l-5919 0 0 -149 5919 0 0 149zm0 -149c41,0 73,33 73,74 0,41 -32,75 -73,75l0 -149z"/>
   </g>
   <g>
    <path class="fil0" d="M2038 4729c-41,0 -74,-33 -74,-74 0,-41 33,-74 74,-74l0 148zm4226 0l-4226 0 0 -148 4226 0 0 148zm0 -148c41,0 74,33 74,74 0,41 -33,74 -74,74l0 -148z"/>
   </g>
   <g>
    <path class="fil0" d="M2038 5074c-42,0 -75,-33 -75,-74 0,-41 33,-74 75,-74l0 148zm5185 0l-5185 0 0 -148 5185 0 0 148zm0 -148c42,0 75,33 75,74 0,41 -33,74 -75,74l0 -148z"/>
   </g>
   <g>
    <path class="fil0" d="M2038 5391c-41,0 -75,-33 -75,-74 0,-41 34,-74 75,-74l0 148zm3553 0l-3553 0 0 -148 3553 0 0 148zm0 -148c42,0 75,33 75,74 0,41 -33,74 -75,74l0 -148z"/>
   </g>
   <g>
    <path class="fil0" d="M2038 5708c-40,0 -73,-33 -73,-74 0,-41 33,-74 73,-74l0 148zm4777 0l-4777 0 0 -148 4777 0 0 148zm0 -148c40,0 73,33 73,74 0,41 -33,74 -73,74l0 -148z"/>
   </g>
   <polygon class="fil1 str0" points="1319,3331 8681,3331 8681,6669 1319,6669 "/>
  </g>
 </g>
</svg>
